<!DOCTYPE svg PUBLIC "-//W3C//DTD SVG 1.1//EN" "http://www.w3.org/Graphics/SVG/1.1/DTD/svg11.dtd">
<!-- Uploaded to: SVG Repo, www.svgrepo.com, Transformed by: SVG Repo Mixer Tools -->
<svg width="800px" height="800px" viewBox="0 0 100.00 100.00" xmlns="http://www.w3.org/2000/svg" version="1.1" fill="#000000" stroke="#000000" stroke-width="0.001">
<g id="SVGRepo_bgCarrier" stroke-width="0"/>
<g id="SVGRepo_tracerCarrier" stroke-linecap="round" stroke-linejoin="round" stroke="#CCCCCC" stroke-width="0.2"/>
<g id="SVGRepo_iconCarrier"> <ellipse cx="50" cy="50" rx="20" ry="20" style="fill:#188FD1"/> <path d="M 8.5,26 A 48,48 0 0 1 91.5,26 L 62,29.5 A 24,24 0 0 0 26,50 z" style="fill:#EA3939"/> <path d="M 50,98 A 48,48 0 0 1 8.5,26 L 26,50 A 24,24 0 0 0 62,70.5 z" style="fill:#4AAE48"/> <path d="M 91.5,26 A 48,48 0 0 1 50,98 L 62,70.5 A 24,24 0 0 0 62,29.5 z" style="fill:#FED14B"/> </g>
</svg>